<mxfile host="Electron" agent="Mozilla/5.0 (Windows NT 10.0; Win64; x64) AppleWebKit/537.36 (KHTML, like Gecko) draw.io/26.0.15 Chrome/132.0.6834.196 Electron/34.2.0 Safari/537.36" version="26.0.15">
  <diagram name="Page-1" id="u0dbYqxbklUMG_bY6Guo">
    <mxGraphModel dx="2074" dy="2296" grid="1" gridSize="10" guides="1" tooltips="1" connect="1" arrows="1" fold="1" page="1" pageScale="1" pageWidth="850" pageHeight="1100" background="none" math="0" shadow="0">
      <root>
        <mxCell id="0" />
        <mxCell id="1" parent="0" />
        <mxCell id="pWu4eBwuglGeW16qFXt5-1" value="&lt;h1 style=&quot;margin-top: 0px;&quot;&gt;Data Flow Diagram&lt;/h1&gt;" style="text;html=1;whiteSpace=wrap;overflow=hidden;rounded=0;fontSize=24;" parent="1" vertex="1">
          <mxGeometry x="180" y="-60" width="530" height="120" as="geometry" />
        </mxCell>
        <mxCell id="pWu4eBwuglGeW16qFXt5-2" value="" style="rounded=0;whiteSpace=wrap;html=1;fillColor=none;strokeColor=light-dark(#707070, #ededed);dashed=1;" parent="1" vertex="1">
          <mxGeometry x="30" y="190" width="130" height="390" as="geometry" />
        </mxCell>
        <mxCell id="pWu4eBwuglGeW16qFXt5-3" value="&lt;b&gt;&lt;font&gt;Source System&lt;/font&gt;&lt;/b&gt;" style="rounded=0;whiteSpace=wrap;html=1;fontSize=15;strokeColor=none;" parent="1" vertex="1">
          <mxGeometry x="36.25" y="170" width="117.5" height="40" as="geometry" />
        </mxCell>
        <mxCell id="pWu4eBwuglGeW16qFXt5-20" style="edgeStyle=orthogonalEdgeStyle;rounded=0;orthogonalLoop=1;jettySize=auto;html=1;entryX=0;entryY=0.5;entryDx=0;entryDy=0;" parent="1" source="pWu4eBwuglGeW16qFXt5-7" target="pWu4eBwuglGeW16qFXt5-13" edge="1">
          <mxGeometry relative="1" as="geometry" />
        </mxCell>
        <mxCell id="pWu4eBwuglGeW16qFXt5-21" style="edgeStyle=orthogonalEdgeStyle;rounded=0;orthogonalLoop=1;jettySize=auto;html=1;" parent="1" source="pWu4eBwuglGeW16qFXt5-7" target="pWu4eBwuglGeW16qFXt5-15" edge="1">
          <mxGeometry relative="1" as="geometry" />
        </mxCell>
        <mxCell id="pWu4eBwuglGeW16qFXt5-22" style="edgeStyle=orthogonalEdgeStyle;rounded=0;orthogonalLoop=1;jettySize=auto;html=1;entryX=0;entryY=0.75;entryDx=0;entryDy=0;" parent="1" source="pWu4eBwuglGeW16qFXt5-7" target="pWu4eBwuglGeW16qFXt5-14" edge="1">
          <mxGeometry relative="1" as="geometry" />
        </mxCell>
        <mxCell id="pWu4eBwuglGeW16qFXt5-7" value="&lt;b&gt;CRM&lt;/b&gt;" style="image;aspect=fixed;html=1;points=[];align=center;fontSize=12;image=img/lib/azure2/general/Folder_Blank.svg;" parent="1" vertex="1">
          <mxGeometry x="70.35" y="280" width="49.29" height="40" as="geometry" />
        </mxCell>
        <mxCell id="pWu4eBwuglGeW16qFXt5-23" style="edgeStyle=orthogonalEdgeStyle;rounded=0;orthogonalLoop=1;jettySize=auto;html=1;entryX=0;entryY=0.5;entryDx=0;entryDy=0;" parent="1" source="pWu4eBwuglGeW16qFXt5-9" target="pWu4eBwuglGeW16qFXt5-17" edge="1">
          <mxGeometry relative="1" as="geometry" />
        </mxCell>
        <mxCell id="pWu4eBwuglGeW16qFXt5-24" style="edgeStyle=orthogonalEdgeStyle;rounded=0;orthogonalLoop=1;jettySize=auto;html=1;" parent="1" source="pWu4eBwuglGeW16qFXt5-9" target="pWu4eBwuglGeW16qFXt5-19" edge="1">
          <mxGeometry relative="1" as="geometry" />
        </mxCell>
        <mxCell id="pWu4eBwuglGeW16qFXt5-25" style="edgeStyle=orthogonalEdgeStyle;rounded=0;orthogonalLoop=1;jettySize=auto;html=1;entryX=0;entryY=0.5;entryDx=0;entryDy=0;" parent="1" source="pWu4eBwuglGeW16qFXt5-9" target="pWu4eBwuglGeW16qFXt5-18" edge="1">
          <mxGeometry relative="1" as="geometry" />
        </mxCell>
        <mxCell id="pWu4eBwuglGeW16qFXt5-9" value="&lt;b&gt;ERP&lt;/b&gt;" style="image;aspect=fixed;html=1;points=[];align=center;fontSize=12;image=img/lib/azure2/general/Folder_Blank.svg;" parent="1" vertex="1">
          <mxGeometry x="70.35" y="440" width="49.29" height="40" as="geometry" />
        </mxCell>
        <mxCell id="pWu4eBwuglGeW16qFXt5-10" value="" style="rounded=1;whiteSpace=wrap;html=1;fillColor=none;strokeColor=#d6b656;" parent="1" vertex="1">
          <mxGeometry x="230" y="220" width="150" height="360" as="geometry" />
        </mxCell>
        <mxCell id="pWu4eBwuglGeW16qFXt5-11" value="&lt;b&gt;&lt;font style=&quot;font-size: 15px;&quot;&gt;Bronze Layer&lt;/font&gt;&lt;/b&gt;" style="rounded=1;whiteSpace=wrap;html=1;fillColor=#fff2cc;strokeColor=#D6B656;" parent="1" vertex="1">
          <mxGeometry x="245" y="175" width="120" height="30" as="geometry" />
        </mxCell>
        <mxCell id="jKmH9sdDoeR3B2JtGGz3-9" style="edgeStyle=orthogonalEdgeStyle;rounded=0;orthogonalLoop=1;jettySize=auto;html=1;" parent="1" target="jKmH9sdDoeR3B2JtGGz3-3" edge="1">
          <mxGeometry relative="1" as="geometry">
            <mxPoint x="325" y="260" as="sourcePoint" />
          </mxGeometry>
        </mxCell>
        <mxCell id="pWu4eBwuglGeW16qFXt5-13" value="&lt;font style=&quot;font-size: 13px;&quot;&gt;crm_cust_info&lt;/font&gt;" style="rounded=1;whiteSpace=wrap;html=1;fillColor=#fff2cc;strokeColor=#D6B656;" parent="1" vertex="1">
          <mxGeometry x="245" y="250" width="120" height="20" as="geometry" />
        </mxCell>
        <mxCell id="jKmH9sdDoeR3B2JtGGz3-11" style="edgeStyle=orthogonalEdgeStyle;rounded=0;orthogonalLoop=1;jettySize=auto;html=1;entryX=0;entryY=0.5;entryDx=0;entryDy=0;" parent="1" target="jKmH9sdDoeR3B2JtGGz3-4" edge="1">
          <mxGeometry relative="1" as="geometry">
            <mxPoint x="325" y="340" as="sourcePoint" />
          </mxGeometry>
        </mxCell>
        <mxCell id="pWu4eBwuglGeW16qFXt5-14" value="&lt;font style=&quot;font-size: 13px;&quot;&gt;crm_sales_details&lt;/font&gt;" style="rounded=1;whiteSpace=wrap;html=1;fillColor=#fff2cc;strokeColor=#D6B656;" parent="1" vertex="1">
          <mxGeometry x="245" y="330" width="120" height="20" as="geometry" />
        </mxCell>
        <mxCell id="jKmH9sdDoeR3B2JtGGz3-10" style="edgeStyle=orthogonalEdgeStyle;rounded=0;orthogonalLoop=1;jettySize=auto;html=1;entryX=0;entryY=0.5;entryDx=0;entryDy=0;" parent="1" target="jKmH9sdDoeR3B2JtGGz3-5" edge="1">
          <mxGeometry relative="1" as="geometry">
            <mxPoint x="325" y="300" as="sourcePoint" />
          </mxGeometry>
        </mxCell>
        <mxCell id="pWu4eBwuglGeW16qFXt5-15" value="&lt;font style=&quot;font-size: 13px;&quot;&gt;crm_crd_info&lt;/font&gt;" style="rounded=1;whiteSpace=wrap;html=1;fillColor=#fff2cc;strokeColor=#D6B656;" parent="1" vertex="1">
          <mxGeometry x="245" y="290" width="120" height="20" as="geometry" />
        </mxCell>
        <mxCell id="jKmH9sdDoeR3B2JtGGz3-12" style="edgeStyle=orthogonalEdgeStyle;rounded=0;orthogonalLoop=1;jettySize=auto;html=1;entryX=0;entryY=0.5;entryDx=0;entryDy=0;" parent="1" target="jKmH9sdDoeR3B2JtGGz3-6" edge="1">
          <mxGeometry relative="1" as="geometry">
            <mxPoint x="325" y="420" as="sourcePoint" />
          </mxGeometry>
        </mxCell>
        <mxCell id="pWu4eBwuglGeW16qFXt5-17" value="&lt;font style=&quot;font-size: 13px;&quot;&gt;erp_cust_az12&lt;/font&gt;" style="rounded=1;whiteSpace=wrap;html=1;fillColor=#fff2cc;strokeColor=#D6B656;" parent="1" vertex="1">
          <mxGeometry x="245" y="410" width="120" height="20" as="geometry" />
        </mxCell>
        <mxCell id="jKmH9sdDoeR3B2JtGGz3-14" style="edgeStyle=orthogonalEdgeStyle;rounded=0;orthogonalLoop=1;jettySize=auto;html=1;entryX=0;entryY=0.5;entryDx=0;entryDy=0;" parent="1" target="jKmH9sdDoeR3B2JtGGz3-7" edge="1">
          <mxGeometry relative="1" as="geometry">
            <mxPoint x="325" y="500" as="sourcePoint" />
          </mxGeometry>
        </mxCell>
        <mxCell id="pWu4eBwuglGeW16qFXt5-18" value="&lt;font style=&quot;font-size: 13px;&quot;&gt;erp_px_cat_g1v2&lt;/font&gt;" style="rounded=1;whiteSpace=wrap;html=1;fillColor=#fff2cc;strokeColor=#D6B656;" parent="1" vertex="1">
          <mxGeometry x="245" y="490" width="120" height="20" as="geometry" />
        </mxCell>
        <mxCell id="jKmH9sdDoeR3B2JtGGz3-13" style="edgeStyle=orthogonalEdgeStyle;rounded=0;orthogonalLoop=1;jettySize=auto;html=1;entryX=0;entryY=0.5;entryDx=0;entryDy=0;" parent="1" target="jKmH9sdDoeR3B2JtGGz3-8" edge="1">
          <mxGeometry relative="1" as="geometry">
            <mxPoint x="325" y="460" as="sourcePoint" />
          </mxGeometry>
        </mxCell>
        <mxCell id="pWu4eBwuglGeW16qFXt5-19" value="&lt;span style=&quot;font-size: 13px;&quot;&gt;erp_loc_a101&lt;/span&gt;" style="rounded=1;whiteSpace=wrap;html=1;fillColor=#fff2cc;strokeColor=#D6B656;" parent="1" vertex="1">
          <mxGeometry x="245" y="450" width="120" height="20" as="geometry" />
        </mxCell>
        <mxCell id="jKmH9sdDoeR3B2JtGGz3-1" value="" style="rounded=1;whiteSpace=wrap;html=1;fillColor=none;strokeColor=#C7C7C7;fontColor=#333333;" parent="1" vertex="1">
          <mxGeometry x="460" y="220" width="150" height="360" as="geometry" />
        </mxCell>
        <mxCell id="jKmH9sdDoeR3B2JtGGz3-2" value="&lt;b&gt;&lt;font style=&quot;font-size: 15px;&quot;&gt;Silver Layer&lt;/font&gt;&lt;/b&gt;" style="rounded=1;whiteSpace=wrap;html=1;fillColor=#f5f5f5;strokeColor=#C7C7C7;fontColor=#333333;" parent="1" vertex="1">
          <mxGeometry x="475" y="175" width="120" height="30" as="geometry" />
        </mxCell>
        <mxCell id="jKmH9sdDoeR3B2JtGGz3-3" value="&lt;font style=&quot;font-size: 13px;&quot;&gt;crm_cust_info&lt;/font&gt;" style="rounded=1;whiteSpace=wrap;html=1;fillColor=none;strokeColor=#666666;fontColor=#333333;" parent="1" vertex="1">
          <mxGeometry x="475" y="250" width="120" height="20" as="geometry" />
        </mxCell>
        <mxCell id="jKmH9sdDoeR3B2JtGGz3-4" value="&lt;font style=&quot;font-size: 13px;&quot;&gt;crm_sales_details&lt;/font&gt;" style="rounded=1;whiteSpace=wrap;html=1;fillColor=none;strokeColor=#666666;fontColor=#333333;" parent="1" vertex="1">
          <mxGeometry x="475" y="330" width="120" height="20" as="geometry" />
        </mxCell>
        <mxCell id="jKmH9sdDoeR3B2JtGGz3-5" value="&lt;font style=&quot;font-size: 13px;&quot;&gt;crm_prd_info&lt;/font&gt;" style="rounded=1;whiteSpace=wrap;html=1;fillColor=none;strokeColor=#666666;fontColor=#333333;" parent="1" vertex="1">
          <mxGeometry x="475" y="290" width="120" height="20" as="geometry" />
        </mxCell>
        <mxCell id="jKmH9sdDoeR3B2JtGGz3-6" value="&lt;font style=&quot;font-size: 13px;&quot;&gt;erp_cust_az12&lt;/font&gt;" style="rounded=1;whiteSpace=wrap;html=1;fillColor=none;strokeColor=#666666;fontColor=#333333;" parent="1" vertex="1">
          <mxGeometry x="475" y="410" width="120" height="20" as="geometry" />
        </mxCell>
        <mxCell id="jKmH9sdDoeR3B2JtGGz3-7" value="&lt;font style=&quot;font-size: 13px;&quot;&gt;erp_px_cat_g1v2&lt;/font&gt;" style="rounded=1;whiteSpace=wrap;html=1;fillColor=none;strokeColor=#666666;fontColor=#333333;" parent="1" vertex="1">
          <mxGeometry x="475" y="490" width="120" height="20" as="geometry" />
        </mxCell>
        <mxCell id="jKmH9sdDoeR3B2JtGGz3-8" value="&lt;span style=&quot;font-size: 13px;&quot;&gt;erp_loc_a101&lt;/span&gt;" style="rounded=1;whiteSpace=wrap;html=1;fillColor=none;strokeColor=#666666;fontColor=#333333;" parent="1" vertex="1">
          <mxGeometry x="475" y="450" width="120" height="20" as="geometry" />
        </mxCell>
        <mxCell id="jKmH9sdDoeR3B2JtGGz3-15" value="" style="rounded=1;whiteSpace=wrap;html=1;fillColor=none;strokeColor=light-dark(#fbe137, #babdc0);" parent="1" vertex="1">
          <mxGeometry x="700" y="220" width="150" height="360" as="geometry" />
        </mxCell>
        <mxCell id="jKmH9sdDoeR3B2JtGGz3-16" value="&lt;b&gt;&lt;font style=&quot;font-size: 15px;&quot;&gt;Gold Layer&lt;/font&gt;&lt;/b&gt;" style="rounded=1;whiteSpace=wrap;html=1;fillColor=#ffff88;strokeColor=#36393d;" parent="1" vertex="1">
          <mxGeometry x="715" y="175" width="120" height="30" as="geometry" />
        </mxCell>
        <mxCell id="jKmH9sdDoeR3B2JtGGz3-17" value="&lt;font style=&quot;font-size: 13px;&quot;&gt;fact_sales&lt;/font&gt;" style="rounded=1;whiteSpace=wrap;html=1;fillColor=#ffff88;strokeColor=#36393d;" parent="1" vertex="1">
          <mxGeometry x="715" y="250" width="120" height="20" as="geometry" />
        </mxCell>
        <mxCell id="cSq2krZ7S_xfhdAhb9c4-1" value="&lt;font style=&quot;font-size: 13px;&quot;&gt;dim_products&lt;/font&gt;" style="rounded=1;whiteSpace=wrap;html=1;fillColor=#ffff88;strokeColor=#36393d;" vertex="1" parent="1">
          <mxGeometry x="715" y="480" width="120" height="20" as="geometry" />
        </mxCell>
        <mxCell id="cSq2krZ7S_xfhdAhb9c4-2" value="&lt;font style=&quot;font-size: 13px;&quot;&gt;dim_customers&lt;/font&gt;" style="rounded=1;whiteSpace=wrap;html=1;fillColor=#ffff88;strokeColor=#36393d;" vertex="1" parent="1">
          <mxGeometry x="715" y="410" width="120" height="20" as="geometry" />
        </mxCell>
        <mxCell id="cSq2krZ7S_xfhdAhb9c4-8" value="" style="endArrow=classic;html=1;rounded=0;exitX=1;exitY=0.5;exitDx=0;exitDy=0;entryX=0;entryY=0.25;entryDx=0;entryDy=0;jumpStyle=gap;" edge="1" parent="1" source="jKmH9sdDoeR3B2JtGGz3-3" target="cSq2krZ7S_xfhdAhb9c4-2">
          <mxGeometry width="50" height="50" relative="1" as="geometry">
            <mxPoint x="630" y="300" as="sourcePoint" />
            <mxPoint x="680" y="250" as="targetPoint" />
          </mxGeometry>
        </mxCell>
        <mxCell id="cSq2krZ7S_xfhdAhb9c4-10" value="" style="endArrow=classic;html=1;rounded=0;exitX=1;exitY=0.5;exitDx=0;exitDy=0;entryX=0;entryY=0.25;entryDx=0;entryDy=0;jumpStyle=gap;" edge="1" parent="1" source="jKmH9sdDoeR3B2JtGGz3-4" target="jKmH9sdDoeR3B2JtGGz3-17">
          <mxGeometry width="50" height="50" relative="1" as="geometry">
            <mxPoint x="640" y="290" as="sourcePoint" />
            <mxPoint x="690" y="240" as="targetPoint" />
          </mxGeometry>
        </mxCell>
        <mxCell id="cSq2krZ7S_xfhdAhb9c4-11" value="" style="endArrow=classic;html=1;rounded=0;exitX=1;exitY=0.5;exitDx=0;exitDy=0;entryX=0;entryY=0.5;entryDx=0;entryDy=0;jumpStyle=gap;" edge="1" parent="1" source="jKmH9sdDoeR3B2JtGGz3-6" target="cSq2krZ7S_xfhdAhb9c4-2">
          <mxGeometry width="50" height="50" relative="1" as="geometry">
            <mxPoint x="630" y="425" as="sourcePoint" />
            <mxPoint x="680" y="375" as="targetPoint" />
          </mxGeometry>
        </mxCell>
        <mxCell id="cSq2krZ7S_xfhdAhb9c4-12" value="" style="endArrow=classic;html=1;rounded=0;exitX=1;exitY=0.5;exitDx=0;exitDy=0;entryX=0;entryY=0.75;entryDx=0;entryDy=0;jumpStyle=gap;" edge="1" parent="1" source="jKmH9sdDoeR3B2JtGGz3-8" target="cSq2krZ7S_xfhdAhb9c4-2">
          <mxGeometry width="50" height="50" relative="1" as="geometry">
            <mxPoint x="400" y="630" as="sourcePoint" />
            <mxPoint x="450" y="580" as="targetPoint" />
          </mxGeometry>
        </mxCell>
        <mxCell id="cSq2krZ7S_xfhdAhb9c4-13" value="" style="endArrow=classic;html=1;rounded=0;exitX=1;exitY=0.5;exitDx=0;exitDy=0;entryX=0;entryY=0;entryDx=0;entryDy=0;jumpStyle=gap;" edge="1" parent="1" source="jKmH9sdDoeR3B2JtGGz3-5" target="cSq2krZ7S_xfhdAhb9c4-1">
          <mxGeometry width="50" height="50" relative="1" as="geometry">
            <mxPoint x="630" y="410" as="sourcePoint" />
            <mxPoint x="680" y="360" as="targetPoint" />
          </mxGeometry>
        </mxCell>
        <mxCell id="cSq2krZ7S_xfhdAhb9c4-14" value="" style="endArrow=classic;html=1;rounded=0;exitX=1;exitY=0.5;exitDx=0;exitDy=0;entryX=0;entryY=0.5;entryDx=0;entryDy=0;jumpStyle=gap;" edge="1" parent="1" source="jKmH9sdDoeR3B2JtGGz3-7" target="cSq2krZ7S_xfhdAhb9c4-1">
          <mxGeometry width="50" height="50" relative="1" as="geometry">
            <mxPoint x="630" y="515" as="sourcePoint" />
            <mxPoint x="680" y="465" as="targetPoint" />
          </mxGeometry>
        </mxCell>
      </root>
    </mxGraphModel>
  </diagram>
</mxfile>
